HIERARCHY
ROOT hip
{
	OFFSET 0.000000 0.000000 0.000000
	CHANNELS 6 Xposition Yposition Zposition Zrotation Yrotation Xrotation 
	JOINT lhipjoint
	{
		OFFSET 0.000000 0.000000 0.000000
		CHANNELS 3 Zrotation Yrotation Xrotation
		JOINT lfemur
		{
			OFFSET 1.363060 -1.794630 0.839290
			CHANNELS 3 Zrotation Yrotation Xrotation
			JOINT ltibia
			{
				OFFSET 2.448110 -6.726130 0.000000
				CHANNELS 3 Zrotation Yrotation Xrotation
				JOINT lfoot
				{
					OFFSET 2.562200 -7.039590 0.000000
					CHANNELS 3 Zrotation Yrotation Xrotation
					JOINT ltoes
					{
						OFFSET 0.157640 -0.433110 2.322550
						CHANNELS 3 Zrotation Yrotation Xrotation
						End Site
						{
							OFFSET 0.000000 0.000000 0.000000
						}
					}
				}
			}
		}
	}
	JOINT rhipjoint
	{
		OFFSET 0.000000 0.000000 0.000000
		CHANNELS 3 Zrotation Yrotation Xrotation
		JOINT rfemur
		{
			OFFSET -1.305520 -1.794630 0.839290
			CHANNELS 3 Zrotation Yrotation Xrotation
			JOINT rtibia
			{
				OFFSET -2.542530 -6.985550 0.000000
				CHANNELS 3 Zrotation Yrotation Xrotation
				JOINT rfoot
				{
					OFFSET -2.568260 -7.056230 0.000000
					CHANNELS 3 Zrotation Yrotation Xrotation
					JOINT rtoes
					{
						OFFSET -0.164730 -0.452590 2.363150
						CHANNELS 3 Zrotation Yrotation Xrotation
						End Site
						{
							OFFSET 0.000000 0.000000 0.000000
						}
					}
				}
			}
		}
	}
	JOINT lowerback
	{
		OFFSET 0.000000 0.000000 0.000000
		CHANNELS 3 Zrotation Yrotation Xrotation
		JOINT upperback
		{
			OFFSET 0.028270 2.035590 -0.193380
			CHANNELS 3 Zrotation Yrotation Xrotation
			JOINT thorax
			{
				OFFSET 0.056720 2.048850 -0.042750
				CHANNELS 3 Zrotation Yrotation Xrotation
				JOINT lowerneck
				{
					OFFSET 0.000000 0.000000 0.000000
					CHANNELS 3 Zrotation Yrotation Xrotation
					JOINT upperneck
					{
						OFFSET -0.054170 1.746240 0.172020
						CHANNELS 3 Zrotation Yrotation Xrotation
						JOINT head
						{
							OFFSET 0.104070 1.761360 -0.123970
							CHANNELS 3 Zrotation Yrotation Xrotation
							End Site
							{
								OFFSET 0.000000 0.000000 0.000000
							}
						}
					}
				}
				JOINT lclavicle
				{
					OFFSET 0.000000 0.000000 0.000000
					CHANNELS 3 Zrotation Yrotation Xrotation
					JOINT lhumerus
					{
						OFFSET 3.362410 1.200890 -0.311210
						CHANNELS 3 Zrotation Yrotation Xrotation
						JOINT lradius
						{
							OFFSET 4.983000 -0.000000 -0.000000
							CHANNELS 3 Zrotation Yrotation Xrotation
							JOINT lwrist
							{
								OFFSET 3.483560 -0.000000 -0.000000
								CHANNELS 3 Zrotation Yrotation Xrotation
								JOINT lhand
								{
									OFFSET 0.000000 0.000000 0.000000
									CHANNELS 3 Zrotation Yrotation Xrotation
									JOINT lfingers
									{
										OFFSET 0.715260 -0.000000 -0.000000
										CHANNELS 3 Zrotation Yrotation Xrotation
										End Site
										{
											OFFSET 0.000000 0.000000 0.000000
										}
									}
								}
								JOINT lthumb
								{
									OFFSET 0.000000 0.000000 0.000000
									CHANNELS 3 Zrotation Yrotation Xrotation
									End Site
									{
										OFFSET 0.000000 0.000000 0.000000
									}
								}
							}
						}
					}
				}
				JOINT rclavicle
				{
					OFFSET 0.000000 0.000000 0.000000
					CHANNELS 3 Zrotation Yrotation Xrotation
					JOINT rhumerus
					{
						OFFSET -3.136600 1.374050 -0.404650
						CHANNELS 3 Zrotation Yrotation Xrotation
						JOINT rradius
						{
							OFFSET -5.241900 -0.000000 -0.000000
							CHANNELS 3 Zrotation Yrotation Xrotation
							JOINT rwrist
							{
								OFFSET -3.444170 -0.000000 -0.000000
								CHANNELS 3 Zrotation Yrotation Xrotation
								JOINT rhand
								{
									OFFSET 0.000000 0.000000 0.000000
									CHANNELS 3 Zrotation Yrotation Xrotation
									JOINT rfingers
									{
										OFFSET -0.622530 -0.000000 -0.000000
										CHANNELS 3 Zrotation Yrotation Xrotation
										End Site
										{
											OFFSET 0.000000 0.000000 0.000000
										}
									}
								}
								JOINT rthumb
								{
									OFFSET 0.000000 0.000000 0.000000
									CHANNELS 3 Zrotation Yrotation Xrotation
									End Site
									{
										OFFSET 0.000000 0.000000 0.000000
									}
								}
							}
						}
					}
				}
			}
		}
	}
}
MOTION
Frames: 5
Frame Time: 0.008333
2.183849 17.017889 16.353525 0.089154 16.038465 -3.444077 5.179855 3.024503 0.573773 -25.904375 -20.980565 3.404241 2.438386 7.892643 27.450390 0.110938 2.012303 -6.522020 0.548500 -4.744400 -13.181000 -6.005383 -2.682850 -2.583699 27.269790 6.282968 12.380183 -2.947469 -5.283090 18.198335 -0.357791 -12.193032 -27.594722 -0.490700 4.491700 -12.464200 0.249278 3.159547 9.275381 -0.885143 4.121756 -3.784314 -5.961203 2.309241 -3.903622 -6.252791 -4.478534 -3.990223 6.317685 -7.242263 17.454258 1.903200 -3.253400 2.233500 1.829092 -9.832172 3.281230 -84.032123 -4.514088 -15.935335 4.859928 -16.250130 -1.295498 0.572432 0.668565 38.831002 11.281688 -4.898408 -1.151300 -7.125000 0.000000 0.000000 -11.433000 24.081200 5.886100 3.411375 9.707637 2.538139 -15.149119 49.257903 -56.609307 -0.912309 19.143815 -0.773609 0.498741 -0.001544 27.394483 -6.036188 13.524452 -1.495300 7.125000 0.000000 0.000000 14.305200 -16.863100 9.854700 
2.178239 17.018566 16.351687 0.090623 16.303463 -3.407043 5.183597 3.024317 0.576875 -25.877521 -21.118473 3.324096 2.438988 7.902603 27.471770 0.142622 1.886117 -6.416518 0.548500 -4.744400 -13.181100 -6.003658 -2.682711 -2.587834 27.311114 6.235367 12.392681 -2.944022 -5.269023 18.159469 -0.355369 -12.342060 -27.764806 -0.486100 4.470500 -12.404400 0.277844 3.207796 9.318358 -0.898658 4.191443 -3.782839 -6.015898 2.346437 -3.871012 -6.301786 -4.546457 -4.010226 6.348892 -7.343541 17.415755 1.947000 -3.311200 2.232300 1.801717 -9.801210 3.264318 -84.050579 -4.611154 -15.617360 4.960219 -16.401875 -1.311756 0.573109 0.687279 38.579562 11.306829 -4.854865 -1.149100 -7.125000 0.000000 0.000000 -11.411300 24.108900 5.867000 3.419853 9.652690 2.640204 -15.961516 49.302473 -59.568034 -0.206720 18.209865 -0.669835 0.555699 -0.004650 29.415759 -5.787584 13.636340 -1.455000 7.125000 0.000000 0.000000 14.440000 -16.804000 9.973200 
2.172531 17.018759 16.350816 0.103932 16.574929 -3.393713 5.185835 3.022461 0.578888 -25.864647 -21.235885 3.274346 2.439026 7.910885 27.491770 0.188897 1.709708 -6.320817 0.544700 -4.728500 -13.135800 -6.000779 -2.680385 -2.594859 27.351035 6.192917 12.453644 -2.939841 -5.253342 18.116063 -0.354531 -12.506290 -27.963400 -0.480900 4.446900 -12.337500 0.288122 3.254767 9.380470 -0.910530 4.255888 -3.780606 -6.050866 2.382091 -3.858163 -6.376302 -4.603687 -3.991871 6.388490 -7.436117 17.368726 2.001900 -3.365800 2.219100 1.774983 -9.787266 3.254977 -84.081892 -4.674203 -15.321115 5.051952 -16.547629 -1.327979 0.576452 0.701444 38.355692 11.357781 -4.850596 -1.156500 -7.125000 0.000000 0.000000 -11.371100 24.098700 5.848300 3.423748 9.609945 2.721753 -16.654678 49.286139 -62.058082 0.391399 17.371453 -0.582476 0.603821 -0.011106 31.061367 -5.568503 13.693635 -1.414900 7.125000 0.000000 0.000000 14.561600 -16.789300 10.067800 
2.167114 17.019146 16.350236 0.102911 16.854277 -3.367112 5.188267 3.020325 0.580273 -25.841965 -21.375647 3.218763 2.438418 7.917927 27.505777 0.221069 1.580976 -6.217381 0.549200 -4.747500 -13.189900 -6.000037 -2.680127 -2.599982 27.407868 6.156361 12.493321 -2.936971 -5.240644 18.082268 -0.354869 -12.671146 -28.170655 -0.475600 4.422600 -12.268700 0.313265 3.301156 9.420177 -0.921282 4.320796 -3.777395 -6.084953 2.418905 -3.832828 -6.445278 -4.663008 -3.987585 6.422556 -7.528354 17.329935 2.051500 -3.419500 2.212100 1.752022 -9.775390 3.247499 -84.142849 -4.738000 -15.024784 5.155369 -16.712579 -1.343644 0.570974 0.716558 38.168527 11.321964 -4.847718 -1.155000 -7.125000 0.000000 0.000000 -11.389100 24.093800 5.859200 3.427324 9.574508 2.790583 -17.283167 49.211545 -64.306871 0.919529 16.594650 -0.507336 0.646787 -0.022127 32.501262 -5.279378 13.735616 -1.356900 7.125000 0.000000 0.000000 14.732300 -16.786200 10.195200 
2.161891 17.019533 16.350236 0.104443 17.124309 -3.339267 5.190021 3.018229 0.582099 -25.813021 -21.500938 3.158302 2.437023 7.923885 27.516780 0.261035 1.426315 -6.123237 0.553900 -4.767500 -13.246700 -5.999304 -2.681053 -2.604400 27.454416 6.108567 12.524216 -2.933835 -5.227833 18.047427 -0.354116 -12.832202 -28.365183 -0.472200 4.407200 -12.225100 0.334343 3.351277 9.453556 -0.931775 4.389602 -3.775776 -6.115083 2.456694 -3.825340 -6.514607 -4.721547 -3.962571 6.452820 -7.619590 17.302386 2.098600 -3.472500 2.206600 1.730725 -9.775538 3.246616 -84.208390 -4.764457 -14.711005 5.254324 -16.877564 -1.359099 0.566021 0.733192 37.949267 11.285291 -4.835412 -1.151800 -7.125000 0.000000 0.000000 -11.408400 24.096800 5.868700 3.427640 9.552839 2.834014 -17.768730 49.118460 -66.312156 1.374954 15.883322 -0.444762 0.681938 -0.036056 33.898636 -5.018332 13.743401 -1.301300 7.125000 0.000000 0.000000 14.889500 -16.809600 10.304000 
